<svg id="visual" viewBox="0 0 900 600" width="900" height="600" xmlns="http://www.w3.org/2000/svg" xmlns:xlink="http://www.w3.org/1999/xlink" version="1.1"><path d="M0 85L82 61L164 67L245 73L327 61L409 73L491 79L573 85L655 85L736 85L818 79L900 79L900 0L818 0L736 0L655 0L573 0L491 0L409 0L327 0L245 0L164 0L82 0L0 0Z" fill="#00cc8e"></path><path d="M0 157L82 163L164 145L245 169L327 163L409 145L491 163L573 151L655 163L736 157L818 157L900 175L900 77L818 77L736 83L655 83L573 83L491 77L409 71L327 59L245 71L164 65L82 59L0 83Z" fill="#00b98a"></path><path d="M0 259L82 265L164 265L245 289L327 271L409 241L491 283L573 265L655 271L736 283L818 247L900 295L900 173L818 155L736 155L655 161L573 149L491 161L409 143L327 161L245 167L164 143L82 161L0 155Z" fill="#00a784"></path><path d="M0 457L82 469L164 409L245 439L327 469L409 433L491 439L573 433L655 409L736 457L818 433L900 445L900 293L818 245L736 281L655 269L573 263L491 281L409 239L327 269L245 287L164 263L82 263L0 257Z" fill="#00957c"></path><path d="M0 601L82 601L164 601L245 601L327 601L409 601L491 601L573 601L655 601L736 601L818 601L900 601L900 443L818 431L736 455L655 407L573 431L491 437L409 431L327 467L245 437L164 407L82 467L0 455Z" fill="#038373"></path></svg>