<svg id="visual" viewBox="0 0 900 600" width="900" height="600" xmlns="http://www.w3.org/2000/svg" xmlns:xlink="http://www.w3.org/1999/xlink" version="1.1"><rect x="0" y="0" width="900" height="600" fill="#3e4143"></rect><path d="M0 495L21.5 476.3C43 457.7 86 420.3 128.8 400.8C171.7 381.3 214.3 379.7 257.2 389.3C300 399 343 420 385.8 441.3C428.7 462.7 471.3 484.3 514.2 485.7C557 487 600 468 642.8 459.7C685.7 451.3 728.3 453.7 771.2 452.7C814 451.7 857 447.3 878.5 445.2L900 443L900 601L878.5 601C857 601 814 601 771.2 601C728.3 601 685.7 601 642.8 601C600 601 557 601 514.2 601C471.3 601 428.7 601 385.8 601C343 601 300 601 257.2 601C214.3 601 171.7 601 128.8 601C86 601 43 601 21.5 601L0 601Z" fill="#6ba6e1" stroke-linecap="round" stroke-linejoin="miter"></path></svg>